<svg version="1.1" id="Ebene_1" xmlns="http://www.w3.org/2000/svg" xmlns:xlink="http://www.w3.org/1999/xlink" x="0px" y="0px" viewBox="0 0 310 310" style="enable-background:new 0 0 310 310;" xml:space="preserve"><style type="text/css">.st0{fill:#FF6601;}.st1{fill:#FFFFFF;}</style><title>TYPO3 Locate</title><rect class="st0" width="310" height="310"/><g><path class="st1" d="M159,265c-33.4-42.7-63.6-77.7-74.7-124.3c-10-42,10.7-81.2,48.8-92.4c38.9-11.4,81.8,7.3,91.9,45.5c5.2,19.8,4.2,45.3-4,63.8C205,193.6,181.8,226.5,159,265z M156,90.7c-15.4-0.1-29.1,13-29.7,28.5c-0.7,16.2,13.2,30.7,29.5,30.7c16.3,0.1,30.2-14.3,29.7-30.5C185,103.9,171.5,90.8,156,90.7z"/></g></svg>
